<svg width="200" height="177" viewBox="0 0 200 177" xmlns="http://www.w3.org/2000/svg" version="1.2">
  <path d="m96.4,115.73256l11.5,0l0,-112.3c0,-3.2 -2.6,-5.8 -5.8,-5.8c-3.1,0 -5.7,2.6 -5.7,5.8l0,112.3zm11.5,-104.4l0,11.5l23.1,0c3.1,0 5.7,-2.6 5.7,-5.7c0,-3.2 -2.6,-5.8 -5.7,-5.8l-23.1,0zm0,25.1l0,11.5l23.1,0c3.1,0 5.7,-2.6 5.7,-5.7c0,-3.2 -2.6,-5.8 -5.7,-5.8l-23.1,0zm0,25.1l0,11.5l23.1,0c3.1,0 5.7,-2.6 5.7,-5.7c0,-3.2 -2.6,-5.8 -5.7,-5.8l-23.1,0zm11.6,62.9c0,9.5 -7.8,17.2 -17.3,17.2c-9.5,0 -17.2,-7.7 -17.2,-17.2c0,-9.5 7.7,-17.2 17.2,-17.2c9.5,0 17.3,7.7 17.3,17.2zm-92.6,49.6q-1,0 -2.1,-0.1c-11.8,-1.2 -18.9,-11.8 -22.3,-16.9q-0.7,-1 -1.2,-1.6c-1.6,-2.1 -1.1,-5.2 1,-6.8c2.1,-1.6 5.2,-1.2 6.8,1q0.6,0.8 1.4,2c2.8,4.2 8,11.9 15.3,12.6c5.1,0.5 10.9,-2.5 17.4,-8.9l0.2,-0.2c8.6,-7.5 17.1,-11 25.2,-10.3c7.7,0.6 14.7,4.9 21.3,13.1c9.5,10.2 17.4,5.2 29.4,-3.8c1.5,-1.1 2.9,-2.1 4.3,-3.1c14.1,-11.2 27.5,-2.3 45.9,9.9l1.3,0.9c11,3.4 21.1,-5.9 24.3,-11c1.4,-2.3 4.3,-3 6.6,-1.6c2.3,1.5 3,4.4 1.6,6.7c-5.4,8.8 -20.1,20.5 -36.2,14.9l-0.6,-0.2l-2.4,-1.6c-19.3,-12.8 -26.4,-16.9 -34.6,-10.4l-0.2,0.2q-2,1.5 -4.2,3.1c-10.5,7.9 -26.4,19.8 -42.4,2.4l-0.2,-0.2c-5,-6.2 -9.7,-9.3 -14.7,-9.7c-5.3,-0.4 -11.4,2.2 -17.9,7.9c-7.8,7.8 -15.6,11.7 -23,11.7zm148.8,-41.7c-2.8,0 -5.7,-0.5 -8.6,-1.5l-0.6,-0.2l-2.4,-1.6c-19.3,-12.8 -26.4,-16.9 -34.6,-10.3c-2.1,1.7 -5.1,1.3 -6.8,-0.8c-1.7,-2.1 -1.3,-5.1 0.8,-6.8c14.1,-11.3 27.5,-2.4 46,9.9l1.3,0.8c11,3.5 21.1,-5.8 24.3,-11c1.4,-2.2 4.3,-2.9 6.6,-1.5c2.3,1.4 3,4.4 1.6,6.7c-4.5,7.1 -15.1,16.3 -27.6,16.3zm-148.8,1.7q-1,0 -2.1,-0.1c-11.8,-1.2 -18.9,-11.7 -22.3,-16.8c-0.5,-0.7 -0.8,-1.2 -1.2,-1.6c-1.6,-2.2 -1.1,-5.2 1,-6.8c2.1,-1.6 5.2,-1.2 6.8,0.9c0.4,0.5 0.8,1.2 1.4,2.1c2.8,4.1 8,11.8 15.3,12.5c5.1,0.6 10.9,-2.4 17.4,-8.8l0.2,-0.2c17.3,-15.2 30.7,-11.1 38.9,-4.9c2.1,1.6 2.5,4.7 0.9,6.8c-1.6,2.1 -4.7,2.5 -6.8,0.9c-5,-3.7 -13.1,-7.3 -26.5,4.4c-7.8,7.7 -15.6,11.6 -23,11.6z" class="s0" id="Layer"/>
  <ellipse ry="9.58806" rx="11.9318" id="svg_1" cy="116.59916" cx="102.32929"/>
</svg>