<svg width="250" height="195" xmlns="http://www.w3.org/2000/svg" version="1.2" viewBox="0 0 250 195">
  <path d="m96.3,126.7c-8.8,0 -16.8,-3.7 -22.4,-9.6l-38.6,18c13,20 35.5,33.2 61,33.2c25.9,0 48.6,-13.6 61.5,-34l-38.4,-17.9c-5.7,6.3 -13.9,10.3 -23.1,10.3zm0,-62.2c16.3,0 29.6,12.4 31,28.4l40,18.5c1.1,-5.1 1.7,-10.4 1.7,-15.8c0,-40.2 -32.6,-72.7 -72.7,-72.7c-40.1,0 -72.7,32.5 -72.7,72.7c0,5.7 0.7,11.3 1.9,16.7l39.7,-18.4c0.9,-16.4 14.5,-29.4 31.1,-29.4zm95.9,31.1c0,53 -42.9,95.9 -95.9,95.9c-53,0 -95.9,-42.9 -95.9,-95.9c0,-53 42.9,-95.9 95.9,-95.9c53,0 95.9,42.9 95.9,95.9zm41.8,41.5l-12.3,0l-12.7,-108.3c0,-10.5 8.4,-18.9 18.9,-18.9c10.4,0 18.9,8.4 18.9,18.9l-12.8,108.3zm9.4,28.1c0,7.7 -6.9,13.9 -15.3,13.9c-8.5,0 -15.4,-6.2 -15.4,-13.9c0,-7.6 6.9,-13.8 15.4,-13.8c8.4,0 15.3,6.2 15.3,13.8z" class="s0" fill-rule="evenodd" id="Layer"/>
</svg>