<svg width="210" height="95" xmlns="http://www.w3.org/2000/svg" version="1.2" viewBox="0 0 210 95">
  <path  d="m115.0139,71.22507c9.7,0 18.9,-0.1 25.1,-0.3c2.5,28.5 48,22 45.3,-1.7l22.6,0l0,-39.9l-27.4,0c-4,-6.3 -21.5,-25.5 -36.5,-30.3c-6.9,-0.2 -40.5,0 -52.5,0c-20.8,2.3 -35.5,18.4 -46.2,29.7c-20.8,-1.4 -33.5,6.1 -40.3,13.5c-3.8,4.2 -5.9,9.6 -5.9,15.3l0,13.1c5.7,0 7.4,0.6 20.8,0.6c6.3,27.5 43.8,21.7 44.5,-0.3c3.2,0 35.5,0.2 50.5,0.3l0,-12.2c-19.1,-0.1 -55.5,-0.5 -58.2,-0.5c1.7,28.7 -31.2,26.5 -27.4,0.7c-11.8,0 -13.3,-0.3 -18.4,-0.3c0,-2.9 10.6,-19.9 37.5,-18.6c9.4,-7.2 25.6,-26.1 44,-27.5c10.5,0 40.2,-0.2 46.2,0c15.9,1.2 33.3,25.1 36.8,29.1l19.5,0l0,16l-19.9,0c5.6,28.2 -27.9,27.1 -25,1.1c-6.5,0.2 -20.2,0.1 -35.1,0l0,12.2zm57.1,-48.6c4.4,-6.7 17,-23 38.3,-20c0,0 0,8.2 0,10c-10.9,-0.9 -23.1,8.9 -30.4,17.7l-7.9,-7.7z" class="s0" id="Layer"/>
  <ellipse ry="8.76527" rx="6.16451" id="svg_1" cy="28.46286" cx="175.38984"/>
</svg>