<svg width="210" height="105" xmlns="http://www.w3.org/2000/svg" version="1.2" viewBox="0 0 210 105">
  <path d="m209.2,30.2l-27.4,0c-4,-6.2 -21.5,-25.5 -36.5,-30.2c-6.9,-0.2 -40.5,0 -52.5,0c-20.8,2.3 -35.5,18.4 -46.2,29.7c-20.8,-1.4 -33.5,6.1 -40.3,13.5c-3.8,4.1 -5.9,9.6 -5.9,15.3l0,13.1c5.7,0 7.4,0.6 20.8,0.6c6.3,27.5 43.8,21.7 44.5,-0.3c3.2,0 16.3,0.1 31.3,0.2l0,-12.3c-19.1,-0.1 -36.2,-0.3 -39,-0.3c1.7,28.7 -31.2,26.5 -27.4,0.7c-11.8,0 -13.3,-0.4 -18.3,-0.4c0,-2.8 10.5,-19.8 37.4,-18.5c9.4,-7.3 25.6,-26.1 44,-27.5c10.5,-0.1 40.2,-0.2 46.2,0c15.9,1.2 33.3,25.1 36.8,29.1l19.5,0l0,16l-19.9,0c5.6,28.2 -27.8,27.1 -25,1.1c-6.5,0.2 -20.2,0.1 -35.1,0l0,12.2c9.7,0 18.9,-0.1 25.1,-0.3c2.5,28.4 48,22 45.3,-1.7l22.6,0l0,-40zm-118.2,56.2l0,4.3l15.8,13.1l14.3,-13.1l0,-4.3l-30.1,0zm25.2,1.1l-19.3,0l0,-15.4l19.3,0l0,15.4zm-25.2,-42.2l0,-4.3l15.8,-13.1l14.3,13.1l0,4.3l-30.1,0zm25.2,-1.1l-19.3,0l0,15.4l19.3,0l0,-15.4zm0,15l0,0.8c-6.3,0 -12.9,-0.1 -19.2,-0.2l0,-0.6l19.2,0z" class="s0" id="Layer"/>
  <rect id="svg_1" height="48.35165" width="20.75702" y="40.13736" x="96.42857"/>
  <rect id="svg_2" height="0.54945" width="0" y="49.20329" x="127.74724"/>
</svg>