<svg width="235" height="95" xmlns="http://www.w3.org/2000/svg" version="1.2" viewBox="0 0 235 95">
  <path d="m41.4,64.5l-41.5,-15.8l0,-48.3l41.5,13.3l0,50.8zm12.9,29.2l-12.9,0l0,-80l12.9,5.5l0,74.5zm95.6,-12.9l0,12.9l-103.6,0l7.2,-12.9l96.4,0zm61.8,-67.2l9.1,9.1l-70.9,71l-6.4,-12.1l68.2,-68zm-65.5,40.1l-5.4,-11.7l72.1,-30.7l7.9,11.4l-74.6,31zm-0.9,-13.6l0.9,13.6l-20.9,-14.8l0,-12.9l20,14.1zm-20,-14.1l0,12.9l-82.8,0l5.7,-12.9l77.1,0zm-14,-22.7l0,12.9l-46,0l0,-12.9l46,0zm-16.6,25.4l-12.8,0l0,-17.4l12.8,0l0,17.4zm138.2,39.6c0,8.1 -6.5,14.7 -14.6,14.7c-8,0 -14.6,-6.6 -14.6,-14.7c0,-8 14.6,-27.8 14.6,-27.8c0,0 14.6,19.8 14.6,27.8z" class="s0" id="Layer"/>
</svg>