<svg width="180" height="175" viewBox="0 0 180 175" xmlns="http://www.w3.org/2000/svg" version="1.2">
  <path d="m141.2,10.4l0,47.3l34.7,47l-9.4,0l-25.3,-27.2l0,84.7c0,6 -4.9,10.9 -10.9,10.9l-84.9,0c-6.1,0 -11,-4.9 -11,-10.9l0,-83.9l-24.5,26.4l-9.4,0l33.9,-46l0,-48.3c0,-6 4.9,-10.9 11,-10.9l84.9,0c6,0 10.9,4.9 10.9,10.9zm-7.8,48.9l-8.8,16.3l0,36.8l8.8,16.3l0,-69.4zm0,92.4l-14.8,-38.2l-61.9,0l-14.8,38.2l91.5,0zm-91.6,-23.1l8.8,-16.3l0,-36.8l-8.8,-16.2l0,69.3zm91.6,-91.3l-91.6,0l14.8,38.2l61.9,0l14.9,-38.2z" class="s0" fill-rule="evenodd" id="Layer"/>
</svg>