<svg width="192" height="145" xmlns="http://www.w3.org/2000/svg" version="1.2" viewBox="0 0 192 145">
  <path d="m11.3,112.9l-11.1,0l0,-72.9l11.1,0l0,72.9z" class="s0" id="Layer"/>
  <path d="m190.4,87c0,21.3 -4.8,42.3 -5.2,44.3l0,9.9l-21.8,0l-7.7,-24l-7.2,0l-12.9,25l-78.3,0l-13.8,-21.6l-25.6,0l0,-90.1l19.8,0l0,-11.8l28.2,0l0,-9.7l-20.1,0l0,-9.4l79.5,0l0,9.4l-19,0l0,9.7l23.3,0l0,12.3l-1.4,0l0,1.9l12.5,0l11.7,26.8l-0.4,0.6l4.3,0l-0.5,-0.6l5.1,-17l2.5,-9.8l21.8,0l0,9.8c0.4,1.8 5.1,23 5.2,44.3zm-14.7,44.3c0.8,-6.1 3.7,-25.3 3.7,-44.3c0,-19.6 -2.6,-39 -3.7,-44.3l-4.2,0l-8.1,27.5l0,0.2l-19,0l-11.8,-27.7l-15.1,0l0,-11.7l-68.2,0l0,11.7l-19.6,0l0,67.7l21.6,0l12.2,19.9l66.5,0l12,-24l21.4,0l8.1,25l4.2,0z" class="s0" fill-rule="evenodd" id="Layer"/>
</svg>