<svg width="180" height="195" xmlns="http://www.w3.org/2000/svg" version="1.2" viewBox="0 0 180 195">
  <path d="m113.5,23.1c0,12.8 -10.3,23.1 -23.1,23.1c-12.7,0 -23,-10.3 -23,-23.1c0,-12.7 10.3,-23 23,-23c12.8,0 23.1,10.3 23.1,23zm-11.7,33.9l-21.1,0l0,-12.7l21.1,0l0,12.7zm7.2,1.4l-68.1,52.3l0,-5.6c0,-27.7 22.4,-50.1 50,-50.1c6.4,0 12.5,1.2 18.1,3.4zm32,46.7l0,18l-79.4,0l66.7,-51.3c7.9,8.8 12.7,20.5 12.7,33.3zm-17.7,32.1c-4,0 -32.9,0 -32.9,0c0,0 -28.8,0 -32.8,0c-6,2.5 -11,4.5 -15,6.8c1.6,5.1 10,43.3 12.4,48.5c0,0 19.1,0 24.5,0c-1.2,-5.4 -14.2,-37.9 -15.4,-49.9c15.4,0 26.3,0 26.3,0c0,0 10.9,0 26.3,0c-1.1,12 -14.1,44.5 -15.4,49.9c5.4,0 24.6,0 24.6,0c2.4,-5.2 10.8,-43.4 12.4,-48.5c-4,-2.3 -9.1,-4.3 -15,-6.8zm-82.4,-14.1l0,15.8l-27.6,21.2l-13.6,-17.8l41.2,-31.6l0,12.4zm100.1,17.2l27.2,17.5l11.9,-15.5l-32.7,-20.2l-6.4,18.2zm27.8,-99.6l-40.5,31.1c-5.2,-5.9 -11.8,-10.5 -19.3,-13.4l46.1,-35.4l13.7,17.7z" class="s0" id="Layer"/>
</svg>