<svg width="178" height="82" xmlns="http://www.w3.org/2000/svg" version="1.2" viewBox="0 0 178 82">
  <path d="m176.3,34.9c0,24.8 -20,44.8 -44.8,44.8l-131.2,0l0,-35.3c0,-24.8 20,-44.8 44.8,-44.8l131.2,0l0,35.3zm-131.2,-15.1c-13.6,0 -24.6,11 -24.6,24.5l0,15.1l111,0c13.5,0 24.5,-11 24.5,-24.5l0,-15.1l-110.9,0zm-5.4,5.4l24.2,0l0,5.6l-15.5,0l0,5.9l13.2,0l0,5.7l-13.2,0l0,6.8l16.1,0l0,5.6l-24.8,0l0,-29.6zm30.6,15c0,-9.9 8.5,-15.6 18.3,-15.6c5,0 9,1.8 11.6,3.9l-4.6,4.3c-1.9,-1.4 -4,-2.4 -6.8,-2.4c-5.3,0 -9.5,3.6 -9.5,9.5c0,6.1 3.7,9.7 9.4,9.7c3.1,0 5.6,-1.2 7.5,-2.8l4.6,4.2c-3.2,2.9 -7.5,4.4 -12.5,4.4c-9.8,0 -18,-5.2 -18,-15.2zm32.4,-0.3c0,-9.7 7.1,-15.3 17.5,-15.3c10.5,0 17.6,5.6 17.6,15.3c0,9.7 -7.1,15.5 -17.6,15.5c-10.4,0 -17.5,-5.8 -17.5,-15.5zm26.1,0c0,-6 -3.3,-9.5 -8.6,-9.5c-5.2,0 -8.6,3.5 -8.6,9.5c0,5.9 3.4,9.7 8.6,9.7c5.3,0 8.6,-3.8 8.6,-9.7z" class="s0" fill-rule="evenodd" id="Layer"/>
</svg>