<svg width="200" height="155" xmlns="http://www.w3.org/2000/svg" version="1.2" viewBox="0 0 200 155">
  <path d="m98.2,32.4c-2.9,0 -5.3,2.4 -5.3,5.4c-0.1,2.9 2.3,5.3 5.3,5.3l78.2,0.2c3,0 5.4,-2.3 5.4,-5.3c0,-2.9 -2.4,-5.3 -5.3,-5.3l-78.3,-0.3z" class="s0" id="Layer"/>
  <path d="m98.2,69.7c-2.9,0 -5.3,2.3 -5.3,5.3c-0.1,2.9 2.3,5.3 5.3,5.3l78.2,0.3c3,0 5.4,-2.4 5.4,-5.4c0,-2.9 -2.4,-5.3 -5.3,-5.3l-78.3,-0.2z" class="s0" id="Layer"/>
  <path d="m98.2,106.9c-2.9,0 -5.3,2.4 -5.3,5.3c-0.1,3 2.3,5.4 5.3,5.4l78.2,0.2c3,0 5.4,-2.4 5.4,-5.3c0,-3 -2.4,-5.4 -5.3,-5.4l-78.3,-0.2z" class="s0" id="Layer"/>
  <path d="m64.3,2c7.1,13.2 16.8,29.1 21,75.1c1.6,31.8 -13.5,62.8 -22.2,75c-0.9,1.3 -2.3,1.9 -3.8,1.9q-0.2,0 -0.4,0c-27.4,-2 -61.6,-34.7 -58.7,-83c1.2,-36.2 31.7,-69.5 60,-71.3l0.3,0c1.6,0 3,0.9 3.8,2.3zm-52,69.4l0,0.3c-2.3,38.6 22.5,65.2 43.4,69.6c8.4,-13.6 18.7,-39 17.5,-63.4c-3.4,-37.9 -10.7,-53.6 -17,-65.4c-20.2,4.7 -42.9,29.9 -43.9,58.9z" class="s0" fill-rule="evenodd" id="Layer"/>
  <path d="m133.6,149.8c-1.3,0 -2.5,-0.5 -3.4,-1.4c-9.9,-9.8 -14,-20.5 -12.1,-31.7c1,-6.4 4.4,-11.3 7.3,-15.7c3.6,-5.5 5.8,-9 4.8,-13.3c-0.5,-2.2 -2.8,-5.5 -5.1,-8.6c-2.4,-3.4 -5.2,-7.3 -6.8,-11.4c-4.4,-10.7 0.3,-23.6 11.6,-32.2c2.1,-1.5 3,-3.2 2.8,-5.6c-0.3,-5.9 -6.8,-13.4 -11.4,-16.1c-2.3,-1.4 -3,-4.4 -1.6,-6.7c1.4,-2.3 4.4,-3 6.6,-1.6c6.4,3.8 15.6,13.8 16.1,24c0.3,5.5 -2,10.3 -6.6,13.8c-7.8,5.8 -11.2,14.2 -8.5,20.8c1.2,3 3.5,6.2 5.7,9.4c3,4.1 5.7,7.9 6.7,12.1c1.9,8.5 -2.4,15 -6.2,20.8c-2.7,3.9 -5.2,7.6 -5.9,11.9c-1.3,8 1.7,15.6 9.4,23.2c1.9,1.9 1.9,5 0,6.8c-0.9,1 -2.2,1.5 -3.4,1.5z" class="s0" id="Layer"/>
</svg>