<svg width="200" height="175" xmlns="http://www.w3.org/2000/svg" version="1.2" viewBox="0 0 200 175">
  <path  d="m71.2,61l-32.8,0l0,-13.8l32.8,0l0,13.8zm-17.7,37.9l-34.5,0l0,-51.7l-15.4,0l11,-17.6l11.6,0l21.5,-29.5l91.8,0l21.5,29.5l11.6,0l11,17.6l-15.4,0l0,51.7l-34.5,0l0,-16.8l-80.2,0l0,16.8zm93.8,-69.3l-13.4,-18.4l-80.5,0l-13.4,18.4l107.3,0zm9,39.1l0,-29.3l-125.2,0l0,29.3l125.2,0zm-7.5,-7.7l-32.8,0l0,-13.8l32.8,0l0,13.8zm-79,62.7c0.8,2.7 1,6.4 -2.3,11c-6.1,8.6 -14.8,9.7 -28.4,10.9c-5.3,0.5 -12,-0.9 -15,3.9c-1.4,2.9 0.2,4.6 16.9,10.9c2.6,1 25.8,11 27.5,11.8l-40.1,1.5c-13.5,-5.1 -29.5,-11.7 -28.4,-27.3c0.9,-12.3 18.8,-13.5 33.4,-14.8c7.3,-0.7 20.1,-0.9 20.1,-5.3c0,-4.4 -3.3,-6.1 -6,-8.7c-1,-0.9 -11.3,-8.8 -12.4,-9.5l20.8,-0.6c6.4,4.2 11.4,8.5 13.9,16.2zm112.1,0c0.8,2.7 1,6.4 -2.3,11c-6.1,8.6 -14.8,9.7 -28.4,10.9c-5.3,0.5 -12,-0.9 -15,3.9c-1.4,2.9 0.2,4.6 16.9,10.9c2.6,1 25.7,11 27.5,11.8l-40.1,1.5c-13.5,-5.1 -29.5,-11.7 -28.4,-27.3c0.9,-12.3 18.7,-13.5 33.4,-14.8c7.3,-0.7 20.1,-0.9 20.1,-5.3c0,-4.4 -3.3,-6.1 -6.1,-8.7c-0.9,-0.9 -11.2,-8.8 -12.3,-9.5l20.8,-0.6c6.4,4.2 11.4,8.5 13.9,16.2z" class="s0" fill-rule="evenodd" id="Layer"/>
</svg>