<svg width="174" height="140" xmlns="http://www.w3.org/2000/svg" version="1.2" viewBox="0 0 174 140">
  <path  d="m48.5,108.6c0,-3.8 3,-7.5 6.1,-11.4c3.7,-4.7 7.9,-10 7.9,-16.8c0,-7.3 -3.2,-13.2 -6.1,-18.4c-2.2,-4.2 -4.2,-7.8 -3.9,-10.9l-3.6,-0.4l10,0l-10,-21.9l-10,21.9l6.4,0c-0.4,5.3 2.2,10.1 4.8,14.7c2.5,4.7 5.2,9.5 5.1,15c0,4.2 -3,8.1 -6.3,12.3c-3.8,4.7 -7.6,9.6 -7.6,15.9c0,8.3 3.8,14.8 7,20c1.9,3.3 3.8,6.5 3.6,8.4l7.2,0.9c0.5,-4.4 -2,-8.6 -4.6,-13c-2.8,-4.7 -6,-10 -6,-16.3z" class="s0" id="Layer"/>
  <path  d="m81.9,108.6c0,-3.8 3,-7.5 6.1,-11.4c3.7,-4.7 7.9,-10 7.9,-16.8c0,-7.3 -3.2,-13.2 -6.1,-18.4c-2.3,-4.2 -4.2,-7.8 -3.9,-10.9l-3.6,-0.4l10,0l-10,-21.9l-10,21.9l6.3,0c-0.3,5.3 2.3,10.1 4.8,14.7c2.6,4.7 5.2,9.5 5.2,15c0,4.2 -3.1,8.1 -6.3,12.3c-3.8,4.7 -7.7,9.6 -7.7,15.9c0,8.3 3.9,14.8 7,20c2,3.3 3.9,6.5 3.6,8.4l7.2,0.9c0.6,-4.4 -1.9,-8.6 -4.5,-13c-2.8,-4.7 -6,-10 -6,-16.3z" class="s0" id="Layer"/>
  <path  d="m115.3,108.6c0,-3.8 2.9,-7.5 6,-11.4c3.8,-4.7 8,-10 8,-16.8c0,-7.3 -3.3,-13.2 -6.1,-18.4c-2.3,-4.2 -4.2,-7.8 -3.9,-10.9l-3.7,-0.4l10,0l-10,-21.9l-9.9,21.9l6.3,0c-0.4,5.3 2.3,10.1 4.8,14.7c2.5,4.7 5.2,9.5 5.2,15c0,4.2 -3.1,8.1 -6.4,12.3c-3.7,4.7 -7.6,9.6 -7.6,15.9c0,8.3 3.9,14.8 7,20c2,3.3 3.8,6.5 3.6,8.4l7.2,0.9c0.5,-4.4 -1.9,-8.6 -4.6,-13c-2.7,-4.7 -5.9,-10 -5.9,-16.3z" class="s0" id="Layer"/>
  <path  d="m172.1,105.6l-171.6,0l0,-105.7l171.6,0l0,105.7zm-159.5,-93.5l0,81.4l147.3,0l0,-81.4l-147.3,0z" class="s0" fill-rule="evenodd" id="Layer"/>
</svg>