<svg width="227" height="125" xmlns="http://www.w3.org/2000/svg" version="1.2" viewBox="0 0 227 125">
  <path d="m161.2,17.2c4.8,8 11.4,17.7 14.2,45.5c1.1,19.3 -9.1,38.1 -15,45.6c-0.6,0.7 -1.5,1.1 -2.5,1.1l-0.3,0c-18.5,-1.2 -41.5,-21.1 -39.5,-50.3c0.8,-22 21.3,-42.2 40.4,-43.2l0.2,0c1,0 2,0.4 2.5,1.3zm-31,42.3l0,0.2l-0.1,0.2c-0.8,12.6 4.4,21.4 8.9,26.5c4.2,4.9 9.6,8.5 14.9,10c4.7,-7.8 10,-20.7 9.4,-32.7c-1.9,-19.2 -5.6,-28.2 -9.2,-34.8c-11.4,3.7 -23.4,16.6 -23.9,30.6zm-61.2,-43.6c19.1,1 39.6,21.2 40.5,43.2c1.9,29.2 -21.1,49.1 -39.6,50.3l-0.2,0c-1,0 -2,-0.4 -2.6,-1.1c-5.8,-7.5 -16.1,-26.3 -15,-45.6c2.8,-27.8 9.4,-37.5 14.2,-45.5c0.5,-0.9 1.5,-1.3 2.5,-1.3l0.2,0zm-4.8,47.8c-0.6,12 4.7,24.9 9.5,32.7c5.2,-1.5 10.6,-5.1 14.8,-10c4.5,-5.1 9.7,-13.9 8.9,-26.5l0,-0.4c-0.6,-14 -12.6,-26.9 -23.9,-30.6c-3.7,6.6 -7.3,15.6 -9.3,34.8zm157.3,4.4l-37.2,0l0,-13.6l37.2,0l0,13.6zm-11,-56l-31.7,19.2l-7.1,-11.6l31.7,-19.3l7.1,11.7zm2.7,98.4l-7.1,11.7l-31.8,-19.3l7.2,-11.6l31.7,19.2zm-176,-42.4l-37.1,0l0,-13.6l37.1,0l0,13.6zm12.7,-48.4l-7.1,11.6l-31.7,-19.2l7.1,-11.7l31.7,19.3zm-2.7,83.2l-31.7,19.3l-7.1,-11.7l31.7,-19.2l7.1,11.6z" class="s0" fill-rule="evenodd" id="Layer"/>
</svg>