<svg width="200" height="145" xmlns="http://www.w3.org/2000/svg" version="1.2" viewBox="0 0 200 145">
  <path d="m63.9,115c0,-3.8 2.9,-7.5 6,-11.5c3.8,-4.7 8,-10 8,-16.7c0,-7.4 -3.3,-13.3 -6.1,-18.5c-2.3,-4.1 -4.2,-7.7 -3.9,-10.9l-3.7,-0.3l10,0l-10,-22l-9.9,22l6.3,0c-0.4,5.2 2.3,10 4.8,14.7c2.5,4.7 5.2,9.5 5.2,15c0,4.2 -3.1,8.1 -6.4,12.2c-3.7,4.8 -7.6,9.7 -7.6,16c0,8.3 3.9,14.7 7,20c2,3.3 3.8,6.4 3.6,8.4l7.2,0.8c0.5,-4.4 -1.9,-8.5 -4.6,-13c-2.8,-4.6 -5.9,-9.9 -5.9,-16.2z" class="s0" id="Layer"/>
  <path d="m97.3,115c0,-3.8 2.9,-7.5 6,-11.5c3.7,-4.7 7.9,-10 7.9,-16.7c0,-7.4 -3.2,-13.3 -6,-18.5c-2.3,-4.1 -4.3,-7.7 -4,-10.9l-3.6,-0.3l10,0l-10,-22l-10,22l6.4,0c-0.4,5.2 2.2,10 4.8,14.7c2.5,4.7 5.2,9.5 5.2,15c0,4.2 -3.1,8.1 -6.4,12.2c-3.7,4.8 -7.6,9.7 -7.6,16c0,8.3 3.9,14.7 7,20c1.9,3.3 3.8,6.4 3.6,8.4l7.2,0.8c0.5,-4.4 -2,-8.5 -4.6,-13c-2.8,-4.6 -5.9,-9.9 -5.9,-16.2z" class="s0" id="Layer"/>
  <path d="m146.6,117.5l-6.2,-3.8c-24.9,-15.2 -55.7,-15.2 -80.6,0l-6.2,3.8l-53.6,-87.5l6.2,-3.8c57.9,-35.5 129.9,-35.5 187.8,0l6.2,3.8l-53.6,87.5zm-46.4,-29.8c14.2,0 28.4,3.3 41.5,10l38.5,-62.9c-50,-27.7 -110.1,-27.7 -160.1,0l38.5,62.9c13.1,-6.7 27.3,-10 41.6,-10z" class="s0" fill-rule="evenodd" id="Layer"/>
  <path d="m130.6,115c0,-3.8 3,-7.5 6.1,-11.5c3.7,-4.7 7.9,-10 7.9,-16.7c0,-7.4 -3.2,-13.3 -6.1,-18.5c-2.2,-4.1 -4.2,-7.7 -3.9,-10.9l-3.6,-0.3l10,0l-10,-22l-10,22l6.3,0c-0.3,5.2 2.3,10 4.8,14.7c2.6,4.7 5.2,9.5 5.2,15c0,4.2 -3.1,8.1 -6.3,12.2c-3.8,4.8 -7.7,9.7 -7.7,16c0,8.3 3.9,14.7 7,20c2,3.3 3.9,6.4 3.6,8.4l7.2,0.8c0.6,-4.4 -1.9,-8.5 -4.5,-13c-2.8,-4.6 -6,-9.9 -6,-16.2z" class="s0" id="Layer"/>
</svg>