<svg width="202" height="118" xmlns="http://www.w3.org/2000/svg" version="1.2" viewBox="0 0 202 118">
  <path d="m201.5,55.7c0,30.8 -25,55.7 -55.7,55.7l-45.1,0c-11.7,0 -19.6,-28 -19.6,-55.7c0,-27.6 7.9,-55.6 19.6,-55.6l45.1,0c30.7,0 55.7,24.9 55.7,55.6zm-97.9,-41c-3.3,4.9 -8,20.5 -8,41c0,20.6 4.7,36.2 8,41.1l42.2,0c22.7,0 41.1,-18.4 41.1,-41.1c0,-22.6 -18.4,-41 -41.1,-41l-42.2,0z" class="s0" fill-rule="evenodd" id="Layer"/>
  <path d="m74.4,11.7l-74,0l0,10.7l74,0l0,-10.7z" class="s0" id="Layer"/>
  <path d="m74.4,34l-74,0l0,10.7l74,0l0,-10.7z" class="s0" id="Layer"/>
  <path d="m73.8,56.3l-74,0l0,10.7l74,0l0,-10.7z" class="s0" id="Layer"/>
  <path d="m73.8,78.6l-74,0l0,10.7l74,0l0,-10.7z" class="s0" id="Layer"/>
  <path d="m73.8,101l-74,0l0,10.7l74,0l0,-10.7z" class="s0" id="Layer"/>
</svg>