<svg width="183" height="185" xmlns="http://www.w3.org/2000/svg" version="1.2" viewBox="0 0 183 185">
  <path  d="m182.5,91c0,50.4 -40.8,91.3 -91.2,91.3c-50.4,0 -91.3,-40.9 -91.3,-91.3c0,-50.4 40.9,-91.3 91.3,-91.3c50.4,0 91.2,40.9 91.2,91.3zm-17.3,0c0,-40.8 -33.1,-73.9 -73.9,-73.9c-40.8,0 -73.9,33.1 -73.9,73.9c0,40.8 33.1,73.9 73.9,73.9c40.8,0 73.9,-33.1 73.9,-73.9zm-18.3,2.1c0.1,-0.3 3.1,1.9 2.4,3.2c-1.4,2.6 -3,5.1 -4,7.8c-2.4,6.6 -11.7,28.8 -16.4,33.9c-0.8,0.9 -1.6,1.7 -4.7,0.7c-3.3,-1.1 -6.7,-2.5 -9.4,-4.6c-10.5,-8.4 -20.7,-17.4 -31.3,-25.8c-7.5,-5.9 -15.7,-10.8 -23,-16.8c-9,-7.4 -16.2,-16.4 -21.2,-27c-0.6,-1.3 -1.2,-2.8 -1.3,-4.2c-0.9,-6.9 4.2,-11.3 10.7,-8.9c5.5,2 11.1,4 16.2,6.9c9,5.3 18.6,7.6 28.8,8.8c6.4,0.8 12.6,2.8 19,4.2c2.3,0.4 4.8,0.8 7.2,0.7c3.2,-0.1 4.4,1.1 3.9,4.3c-0.4,2.6 -1,5.3 -0.7,7.9c0.8,6.7 6.4,10.9 13.1,10.2c3.3,-0.4 6.6,-0.8 10.7,-1.3z" class="s0" fill-rule="evenodd" id="Layer"/>
</svg>