<svg width="190" height="139" xmlns="http://www.w3.org/2000/svg" version="1.2" viewBox="0 0 190 139">
  <path d="m191.5,5l-4.6,15.1c-5.3,-1.6 -11,-2.4 -17,-2.4c-9,0 -17.5,1.9 -24.3,5.3c11.9,6.7 19.9,25.5 23.1,54.3c2,18.5 -3.2,37.1 -13.5,48.6c-5.9,6.6 -13.2,10.3 -20.4,10.3c-7.7,0 -15.4,-4.1 -21.7,-11.5c-10.3,-12 -14.9,-30.3 -12.1,-47.8c3.5,-22 9.4,-46.7 23.9,-54.4c-7.1,-4.3 -16.9,-6.8 -27.3,-6.8c-11.5,0 -22.1,3.1 -29.3,8.1c11.2,7.4 18.7,25.8 21.7,53.5c2.1,18.5 -3.1,37.1 -13.4,48.6c-6,6.6 -13.2,10.3 -20.4,10.3c-7.7,0 -15.4,-4.1 -21.8,-11.5c-10.2,-12 -14.8,-30.3 -12,-47.8c3.4,-21.5 9.1,-45.6 23,-53.8c-6.8,-3.4 -15.5,-5.4 -24.5,-5.4c-5.7,0 -11.3,0.8 -16.5,2.3l-4.3,-15.3c6.6,-1.8 13.6,-2.8 20.8,-2.8c13.9,0 27.1,3.7 36.9,10.1c10,-7.6 24.4,-12.2 39.8,-12.2c14.4,0 27.9,4 37.8,10.7c9.5,-5.5 21.6,-8.6 34.5,-8.6c7.5,0 14.8,1 21.6,3.1zm-135.3,31c-3.4,0 -12,4.2 -18.2,43.4c-2.5,15.6 2.7,28.3 8.5,35c3.1,3.7 6.8,6 9.7,6c2.6,0 5.7,-1.9 8.6,-5.1c5.5,-6.1 11.3,-19.4 9.5,-36.3c-3.1,-28.2 -11.4,-43 -18.1,-43zm78.6,0c-3.4,0 -12,4.2 -18.2,43.4c-2.4,15.6 2.8,28.3 8.5,35c3.2,3.7 6.8,6 9.7,6c2.6,0 5.8,-1.9 8.6,-5.1c5.6,-6.1 11.4,-19.4 9.5,-36.3c-3,-28.2 -11.4,-43 -18.1,-43z" class="s0" fill-rule="evenodd" id="Layer"/>
</svg>