<svg width="200" height="146" xmlns="http://www.w3.org/2000/svg" version="1.2" viewBox="0 0 200 146">
  <path  d="m167.8,70.9c0,39 -31.7,70.7 -70.7,70.7c-39,0 -70.7,-31.7 -70.7,-70.7c0,-39 31.7,-70.7 70.7,-70.7c39,0 70.7,31.7 70.7,70.7zm-126.8,0c0,30.9 25.2,56.1 56.1,56.1c31,0 56.1,-25.2 56.1,-56.1c0,-31 -25.1,-56.1 -56.1,-56.1c-30.9,0 -56.1,25.1 -56.1,56.1zm-3.5,-57.1c-14.2,14.8 -23,35 -23,57.1c0,21.3 8.2,40.7 21.4,55.4l-10.7,9.8c-15.7,-17.2 -25.2,-40.1 -25.2,-65.2c0,-26 10.2,-49.5 26.8,-67l10.7,9.9zm156.8,57.1c0,24.6 -9.2,47 -24.3,64.1l-10.7,-9.8c12.7,-14.6 20.4,-33.6 20.4,-54.3c0,-21.6 -8.3,-41.4 -22,-56.1l10.8,-9.8c16,17.3 25.8,40.4 25.8,65.9zm-119.2,40.8l0,-85.3l14.4,0l0,85.3l-14.4,0zm27.7,-85.3l-13.3,0l0,12.2l13.3,0c7.9,0 14.4,6.4 14.4,14.4c0,7.4 -6,13.4 -13.4,13.4l-14.3,0l0,12.2l14.3,0c14.1,0 25.5,-11.5 25.5,-25.6c0,-14.7 -11.8,-26.6 -26.5,-26.6z" class="s0" fill-rule="evenodd" id="Layer"/>
</svg>