<svg width="220" height="155" xmlns="http://www.w3.org/2000/svg" version="1.2" viewBox="0 0 220 155">
  <path d="m79.4,17.6q-0.9,0 -1.8,0.3l-73.6,26.5c-2.8,1 -4.3,4.1 -3.3,6.8c0.8,2.2 2.9,3.6 5.1,3.6q0.9,0 1.8,-0.3l73.6,-26.6c2.8,-1 4.2,-4 3.2,-6.8c-0.8,-2.2 -2.8,-3.5 -5,-3.5z" class="s0" id="Layer"/>
  <path d="m79.4,53.8q-0.9,0 -1.8,0.3l-73.6,26.5c-2.8,1 -4.3,4.1 -3.3,6.9c0.8,2.1 2.9,3.5 5.1,3.5q0.9,0 1.8,-0.3l73.6,-26.5c2.8,-1 4.2,-4.1 3.2,-6.9c-0.8,-2.2 -2.8,-3.5 -5,-3.5z" class="s0" id="Layer"/>
  <path d="m81.7,90q-0.9,0 -1.8,0.3l-73.6,26.5c-2.8,1 -4.3,4.1 -3.3,6.9c0.8,2.2 2.9,3.5 5.1,3.5q0.9,0 1.8,-0.3l73.6,-26.5c2.8,-1 4.2,-4.1 3.2,-6.9c-0.8,-2.1 -2.8,-3.5 -5,-3.5z" class="s0" id="Layer"/>
  <path d="m118.2,-0.3c28.3,1.8 58.8,35.1 60.1,71.3c2.9,48.3 -31.4,81 -58.8,83q-0.1,0 -0.3,0c-1.5,0 -2.9,-0.6 -3.8,-1.9c-8.7,-12.2 -23.9,-43.2 -22.3,-75c4.2,-46 14,-61.9 21.1,-75.1c0.7,-1.4 2.2,-2.3 3.7,-2.3l0.3,0zm-13,78.2c-1.1,24.4 9.1,49.8 17.6,63.4c20.8,-4.4 45.7,-31 43.4,-69.6l0,-0.3c-1,-29.1 -23.8,-54.2 -43.9,-58.9c-6.3,11.8 -13.6,27.5 -17.1,65.4z" class="s0" fill-rule="evenodd" id="Layer"/>
  <path d="m44.9,149.8c-1.3,0 -2.5,-0.5 -3.5,-1.5c-1.9,-1.8 -1.9,-4.9 0.1,-6.8c7.6,-7.6 10.7,-15.2 9.3,-23.2c-0.7,-4.3 -3.2,-8 -5.8,-11.9c-3.8,-5.8 -8.2,-12.3 -6.2,-20.8c0.9,-4.2 3.7,-8 6.6,-12.1c2.3,-3.2 4.6,-6.4 5.8,-9.4c2.7,-6.6 -0.8,-15 -8.5,-20.8c-4.6,-3.5 -7,-8.3 -6.7,-13.8c0.5,-10.2 9.7,-20.2 16.1,-24c2.3,-1.4 5.3,-0.7 6.7,1.6c1.3,2.3 0.6,5.3 -1.7,6.7c-4.5,2.7 -11.1,10.2 -11.4,16.1c-0.1,2.4 0.8,4.1 2.8,5.6c11.3,8.6 16,21.5 11.7,32.2c-1.7,4.1 -4.4,8 -6.9,11.4c-2.2,3.1 -4.6,6.4 -5.1,8.6c-1,4.3 1.2,7.8 4.9,13.3c2.9,4.4 6.2,9.3 7.3,15.7c1.9,11.2 -2.2,21.9 -12.1,31.7c-1,0.9 -2.2,1.4 -3.4,1.4z" class="s0" id="Layer"/>
</svg>