<svg width="210" height="185" xmlns="http://www.w3.org/2000/svg" version="1.2" viewBox="0 0 210 185">
  <path d="m155.3,82.7c0,28.9 -21.5,42.7 -50.6,42.7c-29.1,0 -50.8,-13.3 -50.8,-42.1c0,-17.6 8.1,-33.1 20.9,-42.5l0,7.3l9.4,0c-11.2,7 -18.3,19.6 -18.3,34c0,22 16.6,32.1 38.8,32.1c22.2,0 38.6,-10.5 38.6,-32.5c0,-14.4 -6.9,-26.8 -17.9,-33.6l9.5,0l0,-7.2c12.6,9.2 20.4,24.4 20.4,41.8zm-80.5,-41.9l0,-18.1c0,-12.4 9.2,-22.5 20.5,-22.5l19.2,0c11.2,0 20.4,10.1 20.4,22.5l0,18.2c-4.1,-3.1 -8.8,-5.4 -13.7,-7.1l0,-12.1c0,-5.8 -4.3,-10.6 -9.6,-10.6l-13.5,0c-5.3,0 -9.6,4.8 -9.6,10.6l0,12c-5,1.6 -9.5,4 -13.7,7.1zm46.4,-7l0,3.4l-0.2,0c-5.1,-1.8 -10.5,-2.8 -16.3,-2.8c-5.7,0 -11.1,1 -16.1,2.8l-0.1,0l0,-3.5q0,0 0.1,0c5,-1.6 10.4,-2.5 16.1,-2.5c5.8,0 11.2,0.9 16.3,2.5q0.1,0 0.2,0.1zm4.2,14.3l-41.2,0c3.2,-2 6.6,-3.5 10.4,-4.5c3.2,-0.8 6.6,-1.3 10.1,-1.3c3.5,0 6.9,0.5 10.1,1.3c3.8,1 7.4,2.5 10.6,4.5zm75.9,43l-34.8,0c-2.3,0 -4.2,-1.9 -4.2,-4.2l0,-5.9c0,-2.3 1.9,-4.2 4.2,-4.2l34.8,0c2.4,0 4.2,1.9 4.2,4.2l0,5.9c0,2.3 -1.8,4.2 -4.2,4.2zm-162.5,0l-34.9,0c-2.3,0 -4.2,-1.9 -4.2,-4.2l0,-5.9c0,-2.3 1.9,-4.2 4.2,-4.2l34.9,0c2.3,0 4.2,1.9 4.2,4.2l0,5.9c0,2.3 -1.9,4.2 -4.2,4.2zm58.9,85.8l0,-34.9c0,-2.3 1.9,-4.2 4.2,-4.2l5.9,0c2.3,0 4.2,1.9 4.2,4.2l0,34.9c0,2.3 -1.9,4.1 -4.2,4.1l-5.9,0c-2.3,0 -4.2,-1.8 -4.2,-4.1zm76.7,-22.1l-24.6,-24.7c-1.7,-1.6 -1.7,-4.3 0,-5.9l4.1,-4.2c1.7,-1.6 4.3,-1.6 6,0l24.6,24.7c1.7,1.6 1.7,4.3 0,5.9l-4.2,4.2c-1.6,1.6 -4.2,1.6 -5.9,0zm-133.6,-113.3l-24.6,-24.6c-1.7,-1.7 -1.7,-4.3 0,-6l4.2,-4.1c1.6,-1.7 4.2,-1.7 5.9,0l24.6,24.6c1.7,1.7 1.7,4.3 0,6l-4.1,4.1c-1.7,1.7 -4.3,1.7 -6,0zm-16.5,103.6l24.7,-24.7c1.6,-1.6 4.3,-1.6 5.9,0l4.2,4.2c1.6,1.6 1.6,4.3 0,5.9l-24.7,24.7c-1.6,1.6 -4.3,1.6 -5.9,0l-4.2,-4.2c-1.6,-1.6 -1.6,-4.3 0,-5.9zm123.6,-110.1l24.6,-24.6c1.7,-1.7 4.3,-1.7 6,0l4.1,4.1c1.7,1.7 1.7,4.3 0,6l-24.6,24.6c-1.7,1.6 -4.3,1.6 -6,0l-4.1,-4.2c-1.7,-1.6 -1.7,-4.2 0,-5.9z" class="s0" fill-rule="evenodd" id="Layer"/>
  <ellipse ry="7.8" rx="29.6" id="svg_1" cy="39.37999" cx="104.68" />
  <ellipse ry="5" rx="14.2" id="svg_2" cy="42.57999" cx="87.68" />
  <ellipse transform="rotate(-11.1303, 80.68, 44.38)" ry="4.4" rx="9.6" id="svg_4" cy="44.37999" cx="80.68" />
  <path id="svg_7" d="m132.68,49.17999c-2.43094,0 -4.4,-2.14807 -4.4,-4.8c0,-2.65193 1.96906,-4.8 4.4,-4.8c2.43094,0 4.4,2.14807 4.4,4.8c0,2.65193 -1.96906,4.8 -4.4,4.8z" opacity="undefined" />
  <ellipse transform="rotate(19.061, 126.686, 43.5421)" ry="4.9049" rx="11.99355" id="svg_9" cy="43.54211" cx="126.68577" />
</svg>