<svg width="185" height="185" xmlns="http://www.w3.org/2000/svg" version="1.2" viewBox="0 0 185 185">
  <path d="m120.2,93.7c0,14.9 -12.1,26.9 -26.9,26.9c-14.8,0 -26.9,-12 -26.9,-26.9c0,-5.7 1.8,-11 4.9,-15.4l-1.4,1.4l-31.5,-31.6c-9.1,11 -15,24.7 -16.3,39.7l12,0l0,11.6l-12,0c1.2,15.2 7.2,29.1 16.4,40.1l9.1,-9.1l8.2,8.1l-9.2,9.2c12.5,10.9 28.8,17.5 46.7,17.5c17.8,0 34,-6.5 46.5,-17.3l-9.4,-9.4l8.2,-8.1l9.4,9.3c9.3,-11.1 15.3,-25 16.5,-40.3l-13.9,0l0,-11.6l13.9,0c-1.3,-14.9 -7.1,-28.5 -16.1,-39.4l-9.2,9.2l-8.2,-8.2l9.4,-9.4c-11.2,-9.8 -25.6,-16.2 -41.3,-17.5l0,13.2l-11.6,0l0,-13.2c-14.8,1.2 -28.4,7 -39.3,15.9l31.5,31.5l-1.9,1.9c4.4,-3.1 9.7,-4.9 15.5,-4.9c14.8,0 26.9,12 26.9,26.8zm-9.6,0c0,-9.5 -7.7,-17.3 -17.3,-17.3c-9.6,0 -17.3,7.8 -17.3,17.3c0,9.6 7.7,17.4 17.3,17.4c9.6,0 17.3,-7.8 17.3,-17.4zm69.8,0c0,48.1 -39,87.2 -87.1,87.2c-48.1,0 -87.1,-39.1 -87.1,-87.2c0,-21.7 7.9,-41.5 21,-56.7l-3.7,-3.8l-17.3,0l8.6,-8.6l-13,-13.1c-2.7,-2.7 -2.7,-7 0,-9.7c2.7,-2.7 7.1,-2.7 9.8,0l13,13l7.8,-7.8l0,15.6l4.7,4.7c15.1,-12.9 34.8,-20.6 56.2,-20.6c48.1,0 87.1,38.9 87.1,87z" class="s0" fill-rule="evenodd" id="Layer"/>
</svg>