<svg width="230" height="155" xmlns="http://www.w3.org/2000/svg" version="1.2" viewBox="0 0 230 155">
  <path  d="m109.7,108.5l-43.4,0l0,-65.6l43.4,0l0,65.6zm-109.2,-29.2l65.4,73.9c2.1,2.4 6,0.9 6,-2.2l0,-147.9c0,-3.2 -3.9,-4.6 -6,-2.3l-65.4,74c-1.2,1.2 -1.2,3.2 0,4.5zm120,29.2l43.4,0l0,-65.6l-43.4,0l0,65.6zm109.2,-29.2l-65.4,73.9c-2.1,2.4 -6,0.9 -6,-2.2l0,-147.9c0,-3.2 3.9,-4.6 6,-2.3l65.4,74c1.2,1.2 1.2,3.2 0,4.5z" class="s0" id="Layer"/>
  <rect id="svg_1" height="66" width="43" y="42.75453" x="48.89091" />
  <rect id="svg_2" height="65.90905" width="34.54543" y="42.86355" x="137.7271" />
</svg>