<svg width="210" height="125" xmlns="http://www.w3.org/2000/svg" version="1.2" viewBox="0 0 210 125">
  <path  d="m107.8,120.7c-1.8,0 -3.6,-0.9 -4.6,-2.5c-1.7,-2.5 -1,-6 1.5,-7.7c22.4,-14.8 33.6,-31.2 29.1,-75.1c-0.3,-3.1 1.9,-5.8 4.9,-6.1c3,-0.3 5.8,1.9 6.1,4.9c4.5,43 -4.7,66.1 -33.9,85.6c-1,0.6 -2,0.9 -3.1,0.9zm-20,-16.6c-1.4,0 -2.8,-0.7 -3.7,-2c-1.3,-2 -0.8,-4.8 1.3,-6.2c17.9,-11.9 26.9,-25 23.3,-60.2c-0.3,-2.4 1.5,-4.6 3.9,-4.8c2.4,-0.3 4.7,1.5 4.9,3.9c3.6,34.4 -3.8,53 -27.2,68.6c-0.8,0.5 -1.6,0.7 -2.5,0.7zm-15.1,-16.4c-1.2,0 -2.3,-0.5 -3,-1.6c-1.2,-1.7 -0.7,-3.9 1,-5.1c14.7,-9.7 22.1,-20.5 19.1,-49.4c-0.2,-2 1.2,-3.8 3.2,-4c2,-0.2 3.8,1.3 4,3.3c3,28.2 -3.1,43.4 -22.3,56.2c-0.6,0.4 -1.3,0.6 -2,0.6zm133.2,3.8l-60.1,0l30.1,-89.8l30,89.8zm0,22.8l-60.1,0l0,-12.8l60.1,0l0,12.8zm-205.4,4.1l0,-117.9l34.3,0q19.5,0 25.5,1.8q9.1,2.6 15.2,11.5q6.1,8.9 6.2,23q-0.1,10.8 -3.6,18.2q-3.5,7.4 -9,11.7q-5.5,4.2 -11.1,5.6q-7.6,1.7 -22.2,1.6l-13.9,0l0,44.5l-21.4,0zm21.4,-97.9l0,33.4l11.7,0q12.6,0 16.9,-1.8q4.3,-1.9 6.7,-5.8q2.4,-4 2.4,-9.2q0,-6.4 -3.4,-10.6q-3.4,-4.2 -8.6,-5.2q-3.8,-0.8 -15.4,-0.8l-10.3,0z" class="s0" fill-rule="evenodd" id="Layer"/>
</svg>