<svg width="237" height="185" xmlns="http://www.w3.org/2000/svg" version="1.2" viewBox="0 0 237 185">
  <path d="m122.7,85.7c8.4,-5.1 16.3,-10 21.6,-13.4c17.1,23.3 53.2,-6.2 38.3,-25.3l19.6,-11.9l-21.1,-34.6l-23.7,14.4c-6.7,-3.3 -32,-10.7 -47.5,-7c-6,3.5 -35.1,21.4 -45.4,27.7c-16.8,12.9 -21.1,34.6 -24.4,50c-18.8,9.8 -25.8,22.9 -27.8,32.9c-1.1,5.6 0,11.4 3,16.4l6.8,11.3c5,-3 6.8,-3.4 18.4,-10.5c19.9,20.6 49.3,-4.2 38.3,-23.6c2.8,-1.7 30.9,-18.6 43.9,-26.4l-6.4,-10.5c-16.6,9.9 -48.3,28.7 -50.6,30.2c16.5,23.9 -13.1,39.4 -23.4,15.1c-10.2,6.2 -11.7,6.6 -16.1,9.3c-1.5,-2.5 -1.3,-22.7 22.7,-35.8c4.3,-11.2 8.4,-36 23.6,-46.9c9.1,-5.6 34.7,-21.3 40,-24.4c14.4,-7.3 42.1,4.2 47.2,5.8l16.9,-10.2l8.4,13.9l-17.3,10.5c19.7,21.4 -9.8,38 -21,14c-5.6,3.6 -17.4,10.7 -30.4,18.5l6.4,10.5zm101.7,-38.3l-222.2,128.3c-2.5,1.5 -3.4,4.7 -1.9,7.2c1.4,2.5 4.6,3.4 7.1,1.9l222.2,-128.3c2.5,-1.4 3.4,-4.6 1.9,-7.1c-1.4,-2.6 -4.6,-3.4 -7.1,-2z" class="s0" id="Layer"/>
</svg>