<svg width="220" height="185" xmlns="http://www.w3.org/2000/svg" version="1.2" viewBox="0 0 220 185">
  <path  d="m217.8,84.3q-31.5,44.9 -63.1,89.8c-13.8,-9.8 -29.9,-14.6 -46.1,-14.6c-16.1,0 -32.3,4.8 -46.1,14.6q-31.5,-44.9 -63,-89.8c32.7,-23 70.9,-34.5 109.1,-34.5c38.2,0 76.4,11.5 109.2,34.5zm-197.7,4.1l14.6,20.8l11.7,16.6l11.9,-7.5l2.5,0l2.7,0.1c-0.9,1.8 -1.4,3.8 -1.4,5.9c0,7.3 6,13.3 13.3,13.3c7.3,0 13.3,-6 13.3,-13.3q0,-2.9 -1.2,-5.4l2.7,0.1l4.9,0.1l2.9,0.1c-1.7,2.2 -2.6,4.9 -2.6,7.9c0,7.3 5.9,13.2 13.2,13.2c7.3,0 13.3,-5.9 13.3,-13.2c0,-2.8 -0.8,-5.3 -2.3,-7.4l2.9,0l3.5,0.1l2.5,0.1q-0.7,2.1 -0.7,4.4c0,7.3 5.9,13.3 13.3,13.3c7.3,0 13.2,-6 13.2,-13.3c0,-1.4 -0.2,-2.7 -0.5,-3.9l2.5,0.1l2.8,0l11.1,6.3l27,-38.4c-26.8,-15.8 -57.2,-24 -88.6,-24c-31.4,0 -61.7,8.2 -88.5,24zm101,-67.1l-8.9,-8.7c3.8,-5.1 10.7,-9.1 17.9,-10.5l1.4,11.3c-3.9,1.5 -7.9,4.6 -10.4,7.9zm35.8,-2.6c-4.2,-4.9 -14.3,-7.2 -19.2,-7.2l0.7,-11.2c5.2,-0.9 17,0 27.2,9.9l-8.7,8.5zm17.5,28.5l-12.1,-2c4.2,-12.3 -0.2,-18.7 -1.4,-21.5l11.3,-5c0.4,2.1 6.8,15.9 2.2,28.5zm-89.5,-33.8l1.3,-11.3c7.3,1.4 14.1,5.4 18,10.5l-8.9,8.7c-2.5,-3.3 -6.5,-6.4 -10.4,-7.9zm-34.1,-3.2c10.2,-9.9 22,-10.8 27.2,-9.9l0.7,11.2c-4.9,0 -15,2.3 -19.2,7.2l-8.7,-8.5zm-6.6,8.5l11.3,5c-1.2,2.8 -5.6,9.2 -1.4,21.5l-12.1,2c-4.7,-12.6 1.8,-26.4 2.2,-28.5zm69.4,99.6l-12,0l0,-20l12,0l0,20zm0,68.3l-12,0l0,-19.9l12,0l0,19.9zm0,-95.5l-12,0l0,-19.9l12,0l0,19.9zm0,-48.2l-12,0l0,-16l-4.9,0l10.9,-9.9l10.9,9.9l-4.9,0l0,16z" class="s0" fill-rule="evenodd" id="Layer"/>
</svg>