<svg width="180" height="145" xmlns="http://www.w3.org/2000/svg" version="1.2" viewBox="0 0 180 145">
  <path  d="m138.7,27.2l0,17l25,0l0,87.8l-149.1,0l0,-87.8l98.9,0l0,-17l-113.8,0l0,122l180.8,0l0,-122l-41.8,0zm-2.6,-27.2l-20,0c-7.6,0 -13.8,6.2 -13.8,13.9l0,30.3l11.2,0l0,-30.3c0,-1.5 1.2,-2.6 2.6,-2.6l20,0c1.5,0 2.6,1.1 2.6,2.6l0,30.3l11.3,0l0,-30.3c0,-7.7 -6.2,-13.9 -13.9,-13.9zm-77.7,132l-21.1,0l0,-17.9l21.1,0l0,17.9zm-6,-17.9l-9.1,0l0,-7.9l9.1,0l0,7.9zm47.1,17.9l-21.1,0l0,-17.9l21.1,0l0,17.9zm-6,-17.9l-9.1,0l0,-7.9l9.1,0l0,7.9zm47,17.9l-21,0l0,-17.9l21,0l0,17.9zm-6,-17.9l-9.1,0l0,-7.9l9.1,0l0,7.9z" class="s0" id="Layer"/>
</svg>