<svg width="195" height="145" xmlns="http://www.w3.org/2000/svg" version="1.2" viewBox="0 0 195 145">
  <path  d="m167.6,71c0,39 -31.7,70.7 -70.7,70.7c-39,0 -70.7,-31.7 -70.7,-70.7c0,-39 31.7,-70.7 70.7,-70.7c39,0 70.7,31.7 70.7,70.7zm-126.8,0c0,31 25.1,56.1 56.1,56.1c31,0 56.1,-25.1 56.1,-56.1c0,-30.9 -25.1,-56.1 -56.1,-56.1c-31,0 -56.1,25.2 -56.1,56.1zm-3.5,-57.1c-14.2,14.8 -23,35 -23,57.1c0,21.3 8.2,40.8 21.4,55.4l-10.7,9.9c-15.7,-17.3 -25.2,-40.2 -25.2,-65.3c0,-26 10.2,-49.5 26.8,-67l10.7,9.9zm156.8,57.1c0,24.6 -9.2,47 -24.3,64.1l-10.7,-9.8c12.7,-14.5 20.4,-33.5 20.4,-54.3c0,-21.6 -8.3,-41.3 -22,-56.1l10.8,-9.8c16,17.3 25.8,40.4 25.8,65.9zm-111.1,18.1l-7.7,0l-3,-7.9l-14,0l-2.9,7.9l-7.4,0l13.6,-34.9l7.4,0l14,34.9zm-13,-13.8l-4.8,-12.9l-4.7,12.9l9.5,0zm16.7,-21.1l14,0q4.1,0 6.1,0.4q2,0.3 3.7,1.4q1.6,1.1 2.6,2.9q1.1,1.8 1.1,4.1q0,2.5 -1.3,4.5q-1.3,2 -3.6,3.1q3.2,0.9 4.9,3.1q1.7,2.3 1.7,5.3q0,2.4 -1.1,4.6q-1.1,2.3 -3,3.6q-1.9,1.3 -4.7,1.7q-1.8,0.1 -8.5,0.2l-11.9,0l0,-34.9zm7.1,5.8l0,8.1l4.6,0q4.1,0 5.1,-0.2q1.8,-0.2 2.8,-1.2q1.1,-1 1.1,-2.7q0,-1.6 -0.9,-2.7q-0.9,-1 -2.7,-1.2q-1,-0.1 -6,-0.1l-4,0zm0,13.9l0,9.3l6.5,0q3.8,0 4.8,-0.2q1.6,-0.3 2.6,-1.4q1,-1.1 1,-3q0,-1.6 -0.8,-2.6q-0.7,-1.1 -2.2,-1.6q-1.4,-0.5 -6.2,-0.5l-5.7,0zm26.3,3.8l6.8,-0.6q0.6,3.4 2.5,5q1.9,1.7 5.1,1.7q3.4,0 5.2,-1.5q1.7,-1.4 1.7,-3.3q0,-1.3 -0.7,-2.1q-0.8,-0.9 -2.6,-1.6q-1.2,-0.4 -5.6,-1.5q-5.7,-1.4 -8,-3.4q-3.2,-2.9 -3.2,-7q0,-2.7 1.6,-5q1.5,-2.3 4.3,-3.6q2.8,-1.2 6.9,-1.2q6.5,0 9.8,2.9q3.4,2.9 3.5,7.7l-7,0.3q-0.5,-2.7 -1.9,-3.9q-1.5,-1.1 -4.5,-1.1q-3.1,0 -4.8,1.2q-1.1,0.8 -1.1,2.2q0,1.2 1,2.1q1.3,1.1 6.5,2.3q5.1,1.2 7.6,2.5q2.4,1.3 3.8,3.6q1.4,2.2 1.4,5.5q0,3 -1.6,5.6q-1.7,2.7 -4.7,3.9q-3.1,1.3 -7.6,1.3q-6.6,0 -10.2,-3q-3.5,-3.1 -4.2,-9z" class="s0" fill-rule="evenodd" id="Layer"/>
</svg>