<svg width="200" height="165" xmlns="http://www.w3.org/2000/svg" version="1.2" viewBox="0 0 200 165">
  <path  d="m198.5,79.3c0,34.5 -28,62.5 -62.6,62.5l-50.7,0c-2.2,0 -4.3,-0.9 -6.3,-2.6l0,20.5l-28.2,0l9.4,-9.3c-4.1,-2.6 -11.6,-15 -12.8,-22.5l15.8,0c1.3,5.6 6,14.5 6,14.5l7.8,-5.1c-3.9,-4.5 -7.1,-12 -9.4,-21.2l-67.1,14.2l3.1,-14.7l61.2,-13.2q-0.5,-3.7 -0.9,-7.5l-63.4,13.4l3.1,-14.7l59.6,-12.8q0,-0.8 0,-1.5q0,-3.2 0.1,-6.3l-62.8,13.3l3.1,-14.7l60.9,-13.1q0.6,-4.1 1.3,-7.9l-65.3,13.7l3.1,-14.7l66,-14.1c1.6,-4.7 3.5,-8.7 5.6,-11.8l-9.8,-6.4c0,0 -4.7,8.9 -6,14.5l-15.8,0c1.2,-7.5 8.7,-19.9 12.8,-22.5l-9.4,-9.3l28.2,0l0,23.7c3,-4.4 6.4,-7 10.1,-7l50.7,0c34.6,0 62.6,28 62.6,62.6zm-111,-48q-0.5,0.6 -1,1.6l-1.5,13.6l-3.7,0.8q-0.9,3.6 -1.7,7.9l7,-1.5l-1.6,14.7l-7,1.5q-0.2,3.7 -0.3,7.7l8.9,-1.9l-1.6,14.7l-6.8,1.4q0.3,4 0.8,7.5l7.6,-1.6l-1.6,14.7l-3.2,0.7c1.9,7.2 4.1,12 5.7,14.1l48.4,0c26.5,0 48,-21.5 48,-47.9c0,-26.5 -21.5,-48 -48,-48l-48.4,0z" class="s0" fill-rule="evenodd" id="Layer"/>
</svg>