<svg width="220" height="208" xmlns="http://www.w3.org/2000/svg" version="1.2" viewBox="0 0 220 208">
  <path  d="m179.96306,97.5c0,39.1 -31.7,70.7 -70.7,70.7c-39,0 -70.7,-31.6 -70.7,-70.7c0,-28.2 16.6,-52.6 40.6,-63.9l11.78344,-4.36943l35.55159,-0.31847l11.46497,4.0879c24.7,11 42,35.7 42,64.5zm-100.8,-63.9l0,-33.6l58.8,0l0,33q-5.8,-2.6 -12.1,-4.1l0,-16.8l-34.6,0l0,17l0.4,0q-6.5,1.7 -12.5,4.5zm46.7,-4.7l0,0.2l-34.2,0c5.7,-1.4 11.5,-2.2 17.6,-2.2c5.7,0 11.3,0.7 16.6,2zm-72.7,68.6c0,31 25.2,56.2 56.1,56.2c31,0 56.1,-25.2 56.1,-56.2c0,-30.9 -25.1,-56.1 -56.1,-56.1c-30.9,0 -56.1,25.2 -56.1,56.1zm163.9,6.9l-33.6,0l0,-14.3l33.6,0l0,14.3zm-184,0l-33.6,0l0,-14.3l33.6,0l0,14.3zm68.4,101.4l0,-33.6l14.3,0l0,33.6l-14.3,0zm0,-86.7l0,-68.6l14.3,0l0,68.6l-14.3,0zm0,24.3l0,-15.6l14.3,0l0,15.6l-14.3,0zm-52.4,-95.1l-23.8,-23.7l10.1,-10.2l23.8,23.8l-10.1,10.1zm131.6,130l-23.7,-23.7l10.1,-10.1l23.8,23.7l-10.2,10.1zm-154.3,-10.1l23.7,-23.7l10.2,10.1l-23.8,23.7l-10.1,-10.1zm130,-130l23.8,-23.8l10.1,10.2l-23.7,23.7l-10.2,-10.1z" class="s0" fill-rule="evenodd" id="Layer"/>
  <rect id="svg_1" height="17.7504" width="10.89628" y="22.15084" x="79.52502" />
  <rect id="svg_2" height="15.99293" width="11.59927" y="21.6236" x="126.09784" />
  <ellipse ry="3.69068" rx="15.28995" id="svg_3" cy="32.34414" cx="108.52319" />
  <ellipse ry="2.10896" rx="0.08787" id="svg_4" cy="30.05944" cx="113.00473" />
  <ellipse ry="2.54832" rx="17.66252" id="svg_5" cy="29.79582" cx="108.78681" />
</svg>