<svg width="155" height="190" xmlns="http://www.w3.org/2000/svg" version="1.2" viewBox="0 0 155 190">
  <path  d="m119.9,10.85649l0,60.3q-0.4,-0.2 -0.9,-0.4c-5.8,-1.3 -7.2,3 -4.9,5.1c0.7,0.7 1.6,1.9 2.3,3.9c-2,1.9 -4.7,3 -7.6,3l-7.7,0l0,97.1l48.3,0l0,7.3l-134.7,0l0,-7.3l29,0l0,-97.1l-8.1,0c-6.1,0 -11.1,-5 -11.1,-11.1l0,-60.8c0,-6.1 5,-11.1 11.1,-11.1l73.2,0c6.1,0 11.1,5 11.1,11.1zm0,60.3c3,1.5 3.9,3.8 6.3,9.9c4.7,17 -5,44.4 -4,67c2.1,19.8 20.9,16 20.2,2.4c0.9,-5.4 -2.8,-31.9 -4.1,-43c-3.4,-22 -4.3,-61.2 -0.8,-69.9c-1,1.3 -2.2,1.1 -4.3,-0.7c-4.8,-3.8 -1.9,-12.9 -3.3,-15.8c-1.8,-2.5 -3.8,-2.5 -6,-4.5c-0.7,-2.3 -0.4,-5 2.7,-8.1c1.7,-1.7 20.1,13.5 20.6,14.4c0.9,2.7 0.4,16.6 0,18.4c-0.8,0 -2.1,0 -2.1,0c-3,21.2 5.6,78.9 7.1,98.6c1.5,19.7 -5.6,33.6 -23.5,29.5c-18.9,-4.7 -17.1,-34.3 -11.4,-62.2c1.8,-14.4 0.7,-22.9 -0.9,-27.4c2.1,-2 3.5,-4.9 3.5,-8.1l0,-0.5zm-80.9,-56.9l0,54l66.3,0l0,-54l-66.3,0zm-37.9,115.5l28.1,-24.6l0,53l-28.2,-25.7c-0.7,-0.8 -0.7,-2 0.1,-2.7zm139.2,-102.5l-2.9,0l0,5.2l2.9,0l0,-5.2z" class="s0" fill-rule="evenodd" id="Layer"/>
  <ellipse ry="6.10327" rx="5.3208" id="svg_1" cy="74.07611" cx="115.23799" />
</svg>