<svg width="200" height="170" xmlns="http://www.w3.org/2000/svg" version="1.2" viewBox="0 0 200 170">
  <path  d="m144.8,70.5l-29.3,45c-2.7,4 -7.2,6.4 -12,6.4l-46.6,0.2l-29.6,41.5c-4.8,6.6 -14.1,8.2 -20.7,3.4c-6.7,-4.8 -8.2,-14 -3.5,-20.7l33.7,-47c2.1,-3 5.5,-4.8 9.1,-4.8l48.2,-0.9l27.8,-38.8c4.3,-5.9 12.4,-7.5 18.6,-3.7c6.6,4.1 8.6,12.9 4.3,19.4z" class="s0" id="Layer"/>
  <path  d="m152,23.8c0,11.6 -9.4,21 -21,21c-11.6,0 -21,-9.4 -21,-21c0,-11.6 9.4,-21 21,-21c11.6,0 21,9.4 21,21z" class="s0" id="Layer"/>
  <path  d="m85.7,65.9l-8.9,-62l-53.5,67l62.4,-5z" class="s0" id="Layer"/>
  <path  d="m44.1,52.6l-32.3,-25.9l21.3,-26.7l32.4,25.9l-21.4,26.7z" class="s0" id="Layer"/>
</svg>