<svg width="220" height="265" xmlns="http://www.w3.org/2000/svg" version="1.2" viewBox="0 0 220 265">
  <path  d="m12.8,176.3l-12.9,0l0,-103l12.9,0l0,103zm207.8,0l-12.8,0l0,-103l12.8,0l0,103zm-131.1,-106.7l-14.9,0l-36.4,-63l11.2,-6.4l40.1,69.4zm71.3,149.3l-11.1,6.5l-31.2,-53.9l14.9,0l27.4,47.4zm-95.4,-111.2l-28.5,0l0,-28.4l28.5,0l0,28.4zm40.3,0l-28.4,0l0,-28.4l28.4,0l0,28.4zm40.4,0l-28.4,0l0,-28.4l28.4,0l0,28.4zm40.4,0l-28.4,0l0,-28.4l28.4,0l0,28.4zm-121.1,49.3l-28.5,0l0,-28.4l28.5,0l0,28.4zm40.3,0l-28.4,0l0,-28.4l28.4,0l0,28.4zm40.4,0l-28.4,0l0,-28.4l28.4,0l0,28.4zm40.4,0l-28.4,0l0,-28.4l28.4,0l0,28.4zm-12.8,100l2.5,-51.3l-45.7,23.4l43.2,27.9zm-39.8,-187.4l14.9,0l36.4,-63l-11.2,-6.4l-40.1,69.4zm-71.3,149.3l11.1,6.5l31.2,-53.9l-14.9,0l-27.4,47.4zm-12.9,38.1l-2.5,-51.3l45.7,23.4l-43.2,27.9z" class="s0" id="Layer"/>
  <rect transform="rotate(30.1022, 69.3739, 220.248)" id="svg_1" height="16.51786" width="12.9295" y="211.98955" x="62.90918" />
  <rect transform="rotate(-31.9899, 153.363, 217.966)" id="svg_3" height="25" width="12.46772" y="205.46577" x="147.12948" />
  <rect transform="rotate(-25.8489, 153.705, 223.125)" id="svg_4" height="8.92857" width="19.19643" y="218.66072" x="144.10714" />
</svg>