<svg width="285" height="125" xmlns="http://www.w3.org/2000/svg" version="1.2" viewBox="0 0 285 125">
  <path  d="m261.9,42.9c-4.7,-5.2 -19.9,-7.3 -24.4,-7.8q-1.1,-0.2 -2.3,-0.2l-36.8,0l0,-15.6l0,-4.4l0,-1.4c0,-7.2 -5.8,-13.1 -13,-13.1l-134.3,0c-7.2,0 -13.1,5.9 -13.1,13.1l0,1.4l0,4.4l0,15.6l-37.8,0l0,19l56.8,0l0,-8.4l0,-10.6l0,-15.6l122.5,0l0,15.6l0,10.6l0,8.4l56.8,0c0,0 9,-0.1 13.5,5l-7.2,9.5c-1.6,-0.8 -4.4,-1.6 -5.7,-1.9q-0.6,-0.1 -1.2,-0.1l-56.2,0l0,7.5l0,11.4l0,16.6l-122.5,0l0,-15.5l0,-12.5l0,-6.4l-56.8,0l0,18.9l37.8,0l0,15.5l0,2.5l0,3.4c0,7.2 5.9,13.1 13.1,13.1l134.3,0c7.2,0 13,-5.9 13,-13.1l0,-3.4l0,-2.5l0,-16.6l26.5,0c3.3,0 6.5,0.6 9.5,1.9l11.7,4.8l33.9,-27.1l-18.1,-22zm-177.7,-8.2c0,6.2 -5,11.3 -11.3,11.3c-6.2,0 -11.2,-5.1 -11.2,-11.3c0,-6.2 5,-11.3 11.2,-11.3c6.3,0 11.3,5.1 11.3,11.3zm30.3,0c0,6.2 -5.1,11.3 -11.3,11.3c-6.2,0 -11.3,-5.1 -11.3,-11.3c0,-6.2 5.1,-11.3 11.3,-11.3c6.2,0 11.3,5.1 11.3,11.3zm30.3,0c0,6.2 -5.1,11.3 -11.3,11.3c-6.2,0 -11.3,-5.1 -11.3,-11.3c0,-6.2 5.1,-11.3 11.3,-11.3c6.2,0 11.3,5.1 11.3,11.3zm30.3,0c0,6.2 -5.1,11.3 -11.3,11.3c-6.2,0 -11.3,-5.1 -11.3,-11.3c0,-6.2 5.1,-11.3 11.3,-11.3c6.2,0 11.3,5.1 11.3,11.3zm-90.9,50.4c0,6.3 -5,11.3 -11.3,11.3c-6.2,0 -11.2,-5 -11.2,-11.3c0,-6.2 5,-11.2 11.2,-11.2c6.3,0 11.3,5 11.3,11.2zm30.3,0c0,6.3 -5.1,11.3 -11.3,11.3c-6.2,0 -11.3,-5 -11.3,-11.3c0,-6.2 5.1,-11.2 11.3,-11.2c6.2,0 11.3,5 11.3,11.2zm30.3,0c0,6.3 -5.1,11.3 -11.3,11.3c-6.2,0 -11.3,-5 -11.3,-11.3c0,-6.2 5.1,-11.2 11.3,-11.2c6.2,0 11.3,5 11.3,11.2zm-45.6,-25.2c0,6.2 -5,11.3 -11.3,11.3c-6.2,0 -11.2,-5.1 -11.2,-11.3c0,-6.2 5,-11.3 11.2,-11.3c6.3,0 11.3,5.1 11.3,11.3zm30.3,0c0,6.2 -5,11.3 -11.3,11.3c-6.2,0 -11.2,-5.1 -11.2,-11.3c0,-6.2 5,-11.3 11.2,-11.3c6.3,0 11.3,5.1 11.3,11.3zm30.3,0c0,6.2 -5.1,11.3 -11.3,11.3c-6.2,0 -11.2,-5.1 -11.2,-11.3c0,-6.2 5,-11.3 11.2,-11.3c6.2,0 11.3,5.1 11.3,11.3zm15.3,25.2c0,6.3 -5.1,11.3 -11.3,11.3c-6.2,0 -11.3,-5 -11.3,-11.3c0,-6.2 5.1,-11.2 11.3,-11.2c6.2,0 11.3,5 11.3,11.2z" class="s0" id="Layer"/>
</svg>