<svg width="163" height="155" xmlns="http://www.w3.org/2000/svg" version="1.2" viewBox="0 0 163 155"> 
  <path  d="m162.3,72.9c-2.6,-14.5 -7.1,-26.8 -13.4,-36.9l0,-19.7c0,-6.4 -5.2,-11.5 -11.5,-11.5c-5.4,0 -9.9,3.6 -11.2,8.5q-0.2,-0.1 -0.4,-0.2l0,3.1l0,0.1l0,12.5l0,0.5c11.2,9.7 18.7,24.3 22.2,43.6c3.6,46.1 -29.8,58.3 -66.6,58.3c-36.8,0 -74.1,-13.2 -66.7,-58.3c2.8,-20.8 9.5,-35 19.8,-44.1l0,-12.5l0,-4q-0.3,0.2 -0.6,0.4c-1.5,-4.6 -5.8,-7.9 -10.9,-7.9c-6.4,0 -11.6,5.1 -11.6,11.5l0,19.9l0.1,0c-5.3,9.7 -9,21.8 -11,36.7c-4.1,25.6 15,73.4 26.5,79c2.6,0.9 8.1,1.5 14.7,1.8l3.1,-2.9l0,-6.4c0,-1.2 1,-2.1 2.2,-2.1c1.1,0 2.1,0.9 2.1,2.1l0,6.5l3.3,3.2c3.8,0 7.7,0 11.3,0.1l3.6,-3.4l0,-6.4c0,-1.2 0.9,-2.1 2.1,-2.1c1.2,0 2.2,0.9 2.2,2.1l0,6.5l3.4,3.2c2.5,0 4.6,0 6,0q2.6,0 5.5,0l3.5,-3.3l0,-6.4c0,-1.2 1,-2.1 2.2,-2.1c1.1,0 2.1,0.9 2.1,2.1l0,6.5l3.2,3.1q6,-0.2 12,-0.3l3,-2.9l0,-6.4c0,-1.2 1,-2.1 2.2,-2.1c1.2,0 2.2,0.9 2.2,2.1l0,6.5l2.4,2.3c4.1,-0.2 8,-0.6 11.4,-1c14.9,-1.8 33.2,-59 31.6,-79.3zm-82,6.2c-6.6,0 -12,-5.4 -12,-12l0,-55.2c0,-6.6 5.4,-12 12,-12c6.6,0 12,5.4 12,12l0,55.2c0,6.6 -5.4,12 -12,12zm12.4,25c0,7 -5.6,12.6 -12.6,12.6c-6.9,0 -12.5,-5.6 -12.5,-12.6c0,-6.9 5.6,-12.5 12.5,-12.5c7,0 12.6,5.6 12.6,12.5z" class="s0" id="Layer"/>
</svg>