<svg width="200" height="175" xmlns="http://www.w3.org/2000/svg" version="1.2" viewBox="0 0 200 175">
  <path  d="m1.4,126.7c3.9,-3.5 7.8,-6.9 11.8,-10.3c0.7,-0.7 1.9,-0.8 2.8,-1.1c1.5,-0.5 3.1,-0.7 4.5,-1.3c2.1,-1 4,-2.3 6.1,-3.2c1,-0.5 2.3,-0.6 3.5,-0.4c1.4,0.2 2.8,0.7 4.2,1.2c2.7,1.3 5.4,1.1 8.1,-0.1c0.6,-0.2 1.3,-0.3 1.9,-0.6c4.9,-2.4 9.7,-1.9 14.5,0.3c3.5,1.6 6.9,1.6 10.3,-0.1c1.3,-0.6 2.9,-0.8 4.2,-1.3c2,-0.9 3.9,-0.8 6,-0.1c2.6,0.8 5.2,1.3 7.8,2.2c2.4,0.9 4.5,0.7 6.7,-0.4c2.7,-1.3 5.6,-1.6 8.6,-1.6c4.5,0.1 8.9,-0.1 13.2,1.6c1.5,0.5 1.9,-0.2 1.9,-1.6q-0.1,-8.9 0,-17.8c0,-3.7 1,-4.7 4.7,-4.7c12.1,0 24.1,0 36.1,0c19.5,0.1 35.8,15.4 37.2,34.8c0.8,10 -0.8,19.3 -6.8,27.6c-7.4,10 -17.3,15.5 -29.9,15.7c-12.5,0.2 -24.9,0 -37.4,0c-2.9,0 -3.9,-1 -3.9,-3.9c-0.1,-4 0,-7.9 0,-11.8c-0.1,-4.2 0.4,-3.8 -3.9,-3.8q-23.3,0 -46.5,0c-15.7,0 -31.3,0 -46.9,0.1c-2.3,0 -4.1,-0.6 -5.7,-2.2c-4.3,-4 -8.7,-7.8 -13,-11.6c-2.1,-1.9 -2.2,-3.7 -0.1,-5.6zm171.9,8c4.2,0 7.3,-3.1 7.3,-7.2c0,-4.1 -3.1,-7.2 -7.1,-7.2c-4.1,0 -7.3,3.1 -7.3,7.2c0,3.9 3.2,7.1 7.1,7.2zm-42.1,12.1q0,4.7 3.1,4.7c2.3,0 3.1,-1.5 3.1,-4.8c-0.1,-6.6 0,-13.2 0,-19.9l0.1,0q0,-0.7 0,-1.4q0,-9.1 0,-18.3c0,-0.9 0,-1.8 -0.2,-2.6c-0.4,-1.5 -1.4,-2.3 -3,-2.3c-1.5,0 -2.5,0.8 -2.9,2.3c-0.1,0.9 -0.2,1.8 -0.2,2.6q0,19.9 0,39.7zm-21.3,-18.1q-30.2,0 -60.4,0q-12.6,0 -25.3,0c-3.1,0 -4.5,1 -4.5,3.1c0,2.1 1.4,3 4.4,3c14.3,0 42.8,0 57,0q14.3,0 28.6,0q0.7,0 1.5,0c1.7,-0.1 3,-1.3 3,-2.9c0.1,-1.5 -1.1,-2.9 -2.7,-3.2c-0.5,0 -1.1,0 -1.6,0zm-19.9,-43.8c0,-7.4 5.4,-13.1 12.6,-13.1c7.2,0 12.6,5.7 12.6,13.1c0,7.4 -5.4,13.1 -12.6,13.1c-7.2,0 -12.6,-5.7 -12.6,-13.1zm21.4,-59.5c0,-5.8 -3.9,-8.9 -9.5,-8.9c-5.2,0 -9,2.7 -12.9,6.6l-11.5,-10.5c6.7,-7.6 16,-12.9 27,-12.9c15.2,0 26.8,7.5 26.8,24.3c0,17.4 -21.2,22.8 -19.6,39.5l-18.2,0c-2.8,-19.4 17.9,-27.4 17.9,-38.1z" class="s0" fill-rule="evenodd" id="Layer"/>
</svg>